<svg version="1.1" xmlns="http://www.w3.org/2000/svg" xmlns:xlink="http://www.w3.org/1999/xlink" x="0px" y="0px" width="535px" height="197px" viewBox="0 0 535 197" enable-background="new 0 0 535 197" xml:space="preserve" class="max-w-full">
  <g>
    <path fill-rule="evenodd" clip-rule="evenodd" d="M5.488,46c0.965-8.585,2.041-17.16,2.859-25.76
        c0.574-6.025,3.215-10.145,8.989-12.564c11.349-4.758,35.055-7.178,47.157-4.44c0.862,7.491,0.412,7.371-6.812,7.989
        c-8.877,0.76-17.863,1.873-26.425,4.214c-7.462,2.04-12.127,7.554-13.05,15.955c-2.687,24.454-3.151,48.893,0.915,73.191
        c2.605,15.568,7.793,19.798,24.058,20.103c10.111,0.188,20.246-0.866,30.908-1.39c3.982-28.22,7.879-55.833,11.939-84.602
        c-11.592,0-22.626,0-33.55,0c-0.609-6.962-0.192-7.468,5.305-7.556c11.328-0.182,22.659-0.249,33.982-0.591
        c3.671-0.111,5.124,0.962,4.776,4.808c-2.215,24.542-4.286,49.096-6.438,73.644c-0.407,4.643-1.026,9.267-1.43,13.91
        c-0.597,6.87-1.482,8.546-8.711,9c-11.759,0.74-23.607,1.124-35.359,0.519c-7.544-0.389-15.041-2.586-22.452-4.406
        c-6.51-1.6-10.753-6.004-12.233-12.566C8.238,108.017,6.947,100.489,5.488,93C5.488,77.333,5.488,61.667,5.488,46z"></path>
    <path fill-rule="evenodd" clip-rule="evenodd" d="M505.488,0c0.614,10.08,0.615,10.138-8.967,10.355
          c-5.434,0.124-10.873,0.022-16.573,0.022c0,12.088,0,22.988,0,34.032c12.368,0,24.472,0.006,36.576-0.012
          c0.994-0.001,1.986-0.205,2.982-0.241c7.817-0.278,8.348,0.4,6.504,9.73c-14.797,0-29.845,0-44.722,0c0,22.236,0,43.281,0,65.251
          c9.828,0,18.943,0.187,28.047-0.082c4.23-0.125,6.048,1.429,5.082,5.434c-0.312,1.289-2.016,3.167-3.124,3.196
          c-11.487,0.306-22.983,0.229-34.476,0.396c-3.637,0.054-3.383-2.286-3.4-4.679c-0.09-12.825-0.205-25.65-0.302-38.476
          c-0.212-28.31-0.419-56.619-0.628-84.929C483.488,0,494.488,0,505.488,0z"></path>
    <path fill-rule="evenodd" clip-rule="evenodd" d="M510.488,195c-0.091-14.487-0.18-28.975-0.275-43.461
          c-0.017-2.498-0.316-5.031,0.029-7.476c0.154-1.088,1.588-1.995,2.44-2.985c0.817,0.846,2.396,1.76,2.328,2.526
          c-0.452,5.072,2.241,6.857,6.607,8.658c7.225,2.98,7.843,12.395,1.632,17.217c-1.165,0.904-2.499,1.592-4.535,2.868
          c4.775,2.96,9.135,5.759,13.593,8.389c2.649,1.563,3.285,3.145,0.326,5.612c-5.658-3.436-11.42-6.935-18.146-11.019
          c0,7.192,0,13.431,0,19.67C513.155,195,511.821,195,510.488,195z"></path>
    <path fill-rule="evenodd" clip-rule="evenodd" d="M431.053,2.217c0.5,5.333-1.188,7.068-5.857,6.953
          c-9.758-0.242-19.25,1.459-28.021,6.026c-6.084,3.168-10.227,7.775-11.066,14.97c-2.967,25.425-3.464,50.84,1.123,76.102
          c2.537,13.971,6.591,17.693,20.654,18.339c10.564,0.485,21.203-0.617,32.125-1.024c3.902-28.769,7.671-56.558,11.589-85.441
          c-11.334,0-22.044,0-32.728,0c-0.779-5.294,0.486-7.385,5.338-7.364c10.484,0.045,20.972-0.414,31.459-0.622
          c1.789-0.035,3.582,0.154,6.156,0.277c-0.531,8.652-0.875,16.908-1.573,25.135c-1.814,21.396-3.849,42.774-5.665,64.171
          c-0.912,10.754-1.165,11.653-11.644,12.91c-16.98,2.038-33.843,1.158-50.463-3.398c-8.418-2.308-13.278-7.382-15.299-15.904
          c-3.768-15.889-4.286-32.021-3.751-48.164c0.502-15.125,2.002-30.215,2.965-45.326c0.432-6.794,3.846-10.988,10.221-13.259
          C401.043,1.457,415.84,1.069,431.053,2.217z"></path>
    <path fill-rule="evenodd" clip-rule="evenodd" d="M221.253,2.867c0.518,6.672,1.042,13.418,1.591,20.484
          c15.164,3.062,29.788,7.348,31.857,26.006c2.023,18.249-9.282,27.211-25.5,32.983c16.118,9.868,31.513,19.293,47.426,29.036
          c-1.82,2.879-3.445,5.45-5.325,8.424c-16.557-10.529-32.646-20.76-49.516-31.488c0,18.793,0,36.773,0,55.259
          c-2.396-0.341-4.154-0.646-5.924-0.83c-3.236-0.337-4.313-1.987-4.305-5.295c0.046-18.312-0.163-36.626-0.238-54.939
          c-0.097-23.641-0.16-47.281-0.22-70.923C211.075,2.193,211.096,2.193,221.253,2.867z"></path>
    <path fill-rule="evenodd" clip-rule="evenodd" d="M192.934,130.833c-3.623,1.885-6.966,3.624-10.825,5.632
          c-1.339-3.294-2.552-6.15-3.668-9.044c-9.161-23.736-18.379-47.452-27.373-71.252c-1.419-3.755-3.197-5.691-7.43-5.41
          c-3.26,0.217-6.571-0.341-10.269-0.58c-5.999,28.426-11.929,56.521-17.991,85.247c-3.725-1.907-7.186-3.215-10.014-5.356
          c-1.131-0.856-1.54-3.711-1.142-5.388c5.718-24.104,11.63-48.162,17.496-72.231c3.583-14.698,7.096-29.416,10.847-44.071
          c0.438-1.712,2.162-4.346,3.34-4.374c3.087-0.072,6.9-1.655,8.789,3.172c15.819,40.42,31.814,80.771,47.74,121.148
          C192.673,128.931,192.7,129.62,192.934,130.833z"></path>
    <path fill-rule="evenodd" clip-rule="evenodd" d="M360.996,142.027c-5.4-14.161-10.494-27.502-15.576-40.848
          c-5.623-14.766-11.332-29.5-16.776-44.332c-1.224-3.333-2.851-4.562-6.475-4.545c-14.378,0.068-14.409-0.071-17.98,13.737
          c-5.829,22.537-11.612,45.087-17.429,67.628c-0.408,1.584-0.932,3.137-1.427,4.79c-4.716-1.188-6.305-3.191-5.14-8.247
          c9.299-40.347,18.242-80.774,27.396-121.154c0.476-2.094-0.135-5.443,3.852-5.233c3.55,0.188,6.886-0.537,8.697,4.37
          c15.434,41.814,31.096,83.546,46.89,125.226C369.322,139.474,364.279,139.233,360.996,142.027z"></path>
    <path fill-rule="evenodd" clip-rule="evenodd" d="M463.803,172.002c6.143,11.709,3.888,18.732-7.387,20.441
          c0-5.662,0.012-11.237-0.002-16.812c-0.025-9.805-0.062-19.61-0.102-29.415c-0.01-2.41-0.201-4.956,2.876-3.378
          c2.189,2.08,4.17,4.455,6.61,6.181c5.403,3.82,6.736,8.585,3.362,15.218C467.759,166.995,465.637,169.386,463.803,172.002z"></path>
    <path fill-rule="evenodd" clip-rule="evenodd" d="M473.746,193.105c-0.183-1.338-0.756-2.76-0.488-4.001
          c3.049-14.12,6.182-28.223,9.447-42.293c0.271-1.168,1.629-2.844,2.555-2.893c0.994-0.052,2.611,1.333,3.037,2.443
          c5.59,14.574,11.041,29.202,16.431,43.852c0.397,1.08,0.052,2.433,0.052,3.658c-0.5,0.113-1,0.227-1.5,0.34
          c-0.76-1.529-1.604-3.024-2.264-4.596c-3.796-9.034-7.444-18.133-11.422-27.087c-0.633-1.425-2.58-2.833-4.102-3.065
          c-0.807-0.123-2.57,2.155-2.929,3.592c-2.125,8.536-3.956,17.146-5.91,25.725c-0.324,1.422-0.771,2.814-1.16,4.221
          C474.91,193.036,474.328,193.071,473.746,193.105z"></path>
  </g>
</svg>
