<svg version="1.1" xmlns="http://www.w3.org/2000/svg" xmlns:xlink="http://www.w3.org/1999/xlink" x="0px" y="0px" width="1000px"
   height="1000px" viewBox="0 0 1000 1000" style="enable-background:new 0 0 1000 1000;" xml:space="preserve">
<g id="background">
  <rect x="1" y="-1" style="fill:#FEEFD0;" width="1000" height="1000"/>
</g>
<g id="beams">
  <g>
    <polygon style="fill:none;" points="241.275,999 570.322,999 789.683,975.982 1000,953.915 1000,828.033 774.018,878.953     "/>
    <polygon style="fill:none;" points="0,982.521 0,999 1.697,999 429.393,372.168 684.011,-1 512.455,-1 344.575,321.199     "/>
    <polygon style="fill:none;" points="89.518,236.407 127.228,-1 0,-1 0,799.988    "/>
    <polygon style="fill:none;" points="10.897,999 26.062,999 565.973,488.198 1000,77.571 1000,-1 836.405,-1 490.466,418.061    "/>
    <polygon style="fill:none;" points="39.842,999 71.132,999 684.455,647.148 1000,466.127 1000,243.986 615.886,546.03    "/>
    <polygon style="fill:none;" points="99.508,999 155.204,999 753.841,805.272 1000,725.613 1000,586.562 719.403,715.078    "/>
    <polygon style="fill:none;" points="0,898.492 0,960.652 275.284,289.03 394.161,-1 228.592,-1 164.341,251.822    "/>
    <polygon style="fill:#F08C2C;" points="26.062,999 39.842,999 615.886,546.03 1000,243.986 1000,77.571 565.973,488.198    "/>
    <polygon style="fill:#F08C2C;" points="1.697,999 10.897,999 490.466,418.061 836.405,-1 684.011,-1 429.393,372.168     "/>
    <polygon style="fill:#F08C2C;" points="0,960.652 0,982.521 344.575,321.199 512.455,-1 394.161,-1 275.284,289.03     "/>
    <polygon style="fill:#F08C2C;" points="0,799.988 0,898.492 164.341,251.822 228.592,-1 127.228,-1 89.518,236.407     "/>
    <polygon style="fill:#F08C2C;" points="71.132,999 99.508,999 719.403,715.078 1000,586.562 1000,466.127 684.455,647.148    "/>
    <polygon style="fill:#F08C2C;" points="155.204,999 241.275,999 774.018,878.953 1000,828.033 1000,725.613 753.841,805.272    "/>
    <polygon style="fill:#F08C2C;" points="570.322,999 1000,999 1000,953.915 789.683,975.982    "/>
  </g>
</g>
</svg>
